:SAMPLES-PER-SECOND 30
:FULLY-SPECIFIED
:DEGREES
450
root  57.7319 37.271 -3.83064 10.8929 81.942 12.2647
RightUpLeg  -22.501 -8.11448 0.127881
RightLeg  10.8026 -26.403 -0.782124
RightFoot  -5.08423 -0.396445 6.67914
RightToes  -8.3237e-009 0 -3.6325e-017
Spine  2.78544 -1.19618 1.68936
Spine1  4.24801 -1.02178 1.60453
HEad  -12.0463 -0.166917 -6.13825
LeftShoulder1  -0.351479 4.46861 -30.329
LeftArm  13.7129 -2.34978 -42.5514
LeftForeArm  19.6499 -26.7287 -4.69068
LeftHand  -0.0273555 6.56353 0.86063
RightShoulder  -1.07012 -6.38703 30.5813
RightArm  20.9748 -8.7948 43.7703
RightForeArm  15.1465 14.9395 6.19054
RightHand  0.109074 4.00707 1.0846
LeftUpLeg  12.4311 2.98333 0.306593
LeftLeg  -0.337757 -19.6101 -2.3015
LeftFoot  -21.6302 -2.66351 -30.3394
LeftToes  -1.18267e-011 3.61711e-011 9.57411e-011
451
root  58.6932 37.1622 -3.69736 10.0251 81.4642 11.0231
RightUpLeg  -23.0177 -8.33034 1.13859
RightLeg  13.7045 -29.0213 -2.02186
RightFoot  -3.01272 -0.0685139 0.795205
RightToes  -8.3237e-009 0 -3.6325e-017
Spine  2.07734 -1.32431 2.50443
Spine1  4.49207 -1.18665 1.86521
HEad  -11.3686 -0.614121 -6.96952
LeftShoulder1  -0.404242 4.59406 -30.8512
LeftArm  17.8868 -1.77728 -41.9044
LeftForeArm  16.5463 -24.7241 -4.38601
LeftHand  -0.0422087 6.98407 -0.323928
RightShoulder  -1.09558 -6.46459 30.4644
RightArm  21.4943 -8.3186 43.5269
RightForeArm  15.017 15.2367 6.11275
RightHand  0.119181 3.22245 1.36866
LeftUpLeg  13.1032 3.24507 0.524578
LeftLeg  0.733884 -20.6238 -2.57346
LeftFoot  -22.944 -3.03839 -30.5684
LeftToes  -1.18267e-011 3.61711e-011 9.57411e-011
452
root  59.7831 37.1169 -3.58725 3.78198 81.216 4.86783
RightUpLeg  -23.91 -8.63046 2.22162
RightLeg  18.1407 -27.8518 -3.3527
RightFoot  -1.03232 0.65753 -7.37879
RightToes  -8.3237e-009 0 -3.6325e-017
Spine  1.0472 -1.7319 4.16416
Spine1  5.78437 -1.72306 2.48113
HEad  -11.455 -2.01193 -7.65903
LeftShoulder1  -0.54642 4.93929 -31.9495
LeftArm  20.1262 -0.840886 -41.1318
LeftForeArm  14.8741 -22.3016 -4.55302
LeftHand  -0.0470774 6.89494 -0.629415
RightShoulder  -1.04808 -6.34265 30.3628
RightArm  21.8271 -7.69903 43.0919
RightForeArm  13.5201 15.4699 6.10311
RightHand  0.0892137 3.36404 0.938879
LeftUpLeg  14.9978 3.15045 1.22302
LeftLeg  0.713122 -20.6618 -2.08513
LeftFoot  -23.8257 -3.26811 -30.4907
LeftToes  -1.18267e-011 3.61711e-011 9.57411e-011
453
root  60.7812 37.0825 -3.46579 -3.46356 79.6269 -2.6328
RightUpLeg  -24.8465 -10.305 4.23317
RightLeg  21.9201 -23.9377 -3.86013
RightFoot  0.0386538 1.08037 -10.8504
RightToes  -8.3237e-009 0 -3.6325e-017
Spine  1.39845 -1.43312 7.84989
Spine1  4.89268 -0.923206 0.350655
HEad  -11.4788 -3.61729 -7.95366
LeftShoulder1  -0.515391 4.85415 -32.0085
LeftArm  18.5435 0.0146111 -41.3097
LeftForeArm  18.6929 -18.7921 -6.28437
LeftHand  -0.0713648 7.36872 -1.68831
RightShoulder  -1.20092 -6.6872 31.2014
RightArm  21.5338 -7.24811 42.0568
RightForeArm  11.7528 15.7457 5.98962
RightHand  0.0833041 4.09264 0.75236
LeftUpLeg  15.0398 3.95098 2.27427
LeftLeg  3.96783 -20.7687 -2.69246
LeftFoot  -25.1824 -3.66679 -30.7494
LeftToes  -1.18267e-011 3.61711e-011 9.57411e-011
454
root  61.8289 37.0506 -3.35288 -10.0227 77.0268 -9.4994
RightUpLeg  -25.0049 -15.1211 8.05733
RightLeg  23.9969 -16.2182 -3.62329
RightFoot  -1.31491 0.935604 -10.7195
RightToes  -8.3237e-009 0 -3.6325e-017
Spine  2.08668 -1.20862 11.3282
Spine1  3.33252 -0.329104 -0.802785
HEad  -10.604 -4.69873 -8.45098
LeftShoulder1  -0.613681 5.09867 -32.3399
LeftArm  13.2538 2.64535 -41.291
LeftForeArm  25.1155 -15.7305 -8.03717
LeftHand  -0.106214 8.18438 -2.39667
RightShoulder  -1.2627 -6.82632 31.4783
RightArm  20.9428 -6.2492 41.3478
RightForeArm  11.7685 14.8792 6.26939
RightHand  0.0704344 4.75328 0.522607
LeftUpLeg  14.6591 6.08342 4.33616
LeftLeg  8.66474 -22.5491 -4.28716
LeftFoot  -26.2216 -3.96713 -30.873
LeftToes  -1.18267e-011 3.61711e-011 9.57411e-011
455
root  62.7293 36.9837 -3.17792 -12.6013 74.8955 -12.5684
RightUpLeg  -24.8922 -14.6045 9.76712
RightLeg  25.8402 -14.5285 -4.33875
RightFoot  -2.88544 0.73635 -10.1736
RightToes  -8.3237e-009 0 -3.6325e-017
Spine  2.86961 -1.29794 13.2022
Spine1  1.99759 -0.239547 -0.412709
HEad  -9.20269 -5.22793 -8.77304
LeftShoulder1  -0.58149 5.03164 -31.8804
LeftArm  7.19634 5.5909 -41.7119
LeftForeArm  31.0249 -12.367 -9.37283
LeftHand  -0.145929 8.88779 -3.07354
RightShoulder  -1.12247 -6.50911 30.8226
RightArm  19.5333 -6.21861 41.9944
RightForeArm  13.7325 14.8428 6.01912
RightHand  0.0902959 3.03408 1.02431
LeftUpLeg  12.8824 8.37673 6.45188
LeftLeg  15.7066 -25.7479 -7.57692
LeftFoot  -26.6722 -4.08768 -30.8688
LeftToes  -1.18267e-011 3.61711e-011 9.57411e-011
